<?xml version="1.0" encoding="UTF-8" standalone="no"?>
<svg
   width="128"
   height="128"
   viewBox="0 0 128 128"
   version="1.1"
   id="svg1"
   inkscape:export-filename="icon.png"
   inkscape:export-xdpi="96"
   inkscape:export-ydpi="96"
   inkscape:version="1.4.2 (ebf0e940d0, 2025-05-08)"
   sodipodi:docname="icon.svg"
   xmlns:inkscape="http://www.inkscape.org/namespaces/inkscape"
   xmlns:sodipodi="http://sodipodi.sourceforge.net/DTD/sodipodi-0.dtd"
   xmlns="http://www.w3.org/2000/svg"
   xmlns:svg="http://www.w3.org/2000/svg">
  <defs
     id="defs1" />
  <sodipodi:namedview
     id="base"
     units="px"
     showgrid="true"
     bordercolor="#666666"
     borderopacity="1.0"
     pagecolor="#ffffff"
     inkscape:pageopacity="0.0"
     inkscape:pageshadow="2"
     inkscape:document-units="px"
     inkscape:current-layer="layer1"
     inkscape:showpageshadow="2"
     inkscape:pagecheckerboard="0"
     inkscape:deskcolor="#d1d1d1"
     inkscape:zoom="5.5634661"
     inkscape:cx="56.529507"
     inkscape:cy="65.426838">
    <inkscape:grid
       id="grid1"
       type="xygrid"
       originx="0"
       originy="0"
       spacingy="1"
       spacingx="1"
       units="px" />
  </sodipodi:namedview>
  <g
     id="layer1"
     inkscape:groupmode="layer"
     inkscape:label="Layer 1">
    <rect
       style="fill:#13498e;fill-opacity:1;stroke:none;stroke-width:2.5;stroke-linecap:round;stroke-linejoin:round;paint-order:markers stroke fill"
       id="rect1"
       width="128"
       height="128"
       x="0"
       y="0"
       rx="25"
       ry="25" />
    <path
       style="font-weight:bold;font-size:74.6667px;line-height:1.25;font-family:'Noto Sans';-inkscape-font-specification:'Noto Sans Bold';stroke-width:0.999997;fill:#f9f9f9"
       d="M 15.661572,53.018179 Q 15.661572,48.790867 17.959024,47.136702 20.348373,45.390638 23.656705,45.390638 26.873137,45.390638 29.170589,47.136702 31.559939,48.790867 31.559939,53.018179 31.559939,57.153591 29.170589,58.991553 26.873137,60.737617 23.656705,60.737617 20.348373,60.737617 17.959024,58.991553 15.661572,57.153591 15.661572,53.018179 Z M 15.661572,90.053102 Q 15.661572,85.82579 17.959024,84.079727 20.348373,82.333664 23.656705,82.333664 26.873137,82.333664 29.170589,84.079727 31.559939,85.82579 31.559939,90.053102 31.559939,94.096615 29.170589,95.934585 26.873137,97.680645 23.656705,97.680645 20.348373,97.680645 17.959024,95.934585 15.661572,94.096615 15.661572,90.053102 Z M 74.200657,30.319354 49.75577,97.037355 H 37.165734 L 61.610621,30.319354 Z M 112.33843,30.319354 87.893551,97.037355 H 75.303516 L 99.748399,30.319354 Z"
       id="text1"
       aria-label="://" />
  </g>
</svg>
